<svg version="1.1" xmlns="http://www.w3.org/2000/svg" viewBox="0 0 969.0798216532385 399.6666564941406" width="969.0798216532385" height="399.6666564941406">
  <!-- svg-source:excalidraw -->
  
  <defs>
    <style class="style-fonts">
      @font-face {
        font-family: "Virgil";
        src: url("https://pomdtr.vscode-unpkg.net/pomdtr/excalidraw-editor/3.6.1/extension/public//dist/excalidraw-assets/Virgil.woff2");
      }
      @font-face {
        font-family: "Cascadia";
        src: url("https://pomdtr.vscode-unpkg.net/pomdtr/excalidraw-editor/3.6.1/extension/public//dist/excalidraw-assets/Cascadia.woff2");
      }
    </style>
    
  </defs>
  <g stroke-linecap="round" transform="translate(306.447878904215 158.66665649414062) rotate(0 206.5 115.5)"><path d="M31.08 1.73 L380.31 0.93 L387.46 -0.62 L400.6 4.74 L410.17 13.7 L411.66 18.26 L414.41 32.92 L413.85 197.51 L414.25 205.37 L410.45 219.65 L400.14 227.01 L393.59 227.93 L382.4 230.92 L30.77 230.26 L23.23 230.3 L12.39 224.66 L5.2 218 L2.7 213.28 L1.76 197.97 L1.84 23.38 L3.73 16.8 L7.32 7.86 L19.81 2.2 L33.52 1.75" stroke="none" stroke-width="0" fill="#a5d8ff"></path><path d="M32 0 M32 0 C146.42 1.05, 261.02 0.42, 381 0 M32 0 C161.65 0.68, 291.77 0.7, 381 0 M381 0 C400.68 -1.35, 414.97 11.38, 413 32 M381 0 C403.54 0.87, 413.96 10.55, 413 32 M413 32 C411.62 64.95, 412.37 101.25, 413 199 M413 32 C412.94 74.13, 412.13 116.64, 413 199 M413 199 C412.04 221.43, 403.81 230.98, 381 231 M413 199 C413.66 218.33, 404.36 232.13, 381 231 M381 231 C280.48 231.08, 177.73 232.04, 32 231 M381 231 C252.09 231.3, 123.96 231.59, 32 231 M32 231 C8.94 232.72, 0.18 220.79, 0 199 M32 231 C8.77 229.85, 1.9 219.26, 0 199 M0 199 C0.15 166.12, 1.79 129.4, 0 32 M0 199 C0.44 149.62, -1.14 98.63, 0 32 M0 32 C-0.55 12.16, 9.3 1.13, 32 0 M0 32 C-0.22 10.9, 9.01 2.13, 32 0" stroke="#1e1e1e" stroke-width="1" fill="none"></path></g><g stroke-linecap="round"><g transform="translate(10.415892122685932 263.6666564941406) rotate(0 144.4752904532211 1.2697333690121866)"><path d="M-0.42 0.47 C47.96 0.76, 241.11 2.72, 289.37 2.87 M1.57 -0.33 C49.89 0.18, 240.79 0.9, 288.59 1.37" stroke="#1e1e1e" stroke-width="1" fill="none"></path></g><g transform="translate(10.415892122685932 263.6666564941406) rotate(0 144.4752904532211 1.2697333690121866)"><path d="M261.12 12 C268.66 9.4, 272.57 7.46, 287.61 3.28 M261.1 10.94 C270.64 8.56, 280.88 4.18, 288.39 1.49" stroke="#1e1e1e" stroke-width="1" fill="none"></path></g><g transform="translate(10.415892122685932 263.6666564941406) rotate(0 144.4752904532211 1.2697333690121866)"><path d="M261.26 -8.52 C268.95 -6.45, 272.83 -3.71, 287.61 3.28 M261.23 -9.59 C270.69 -4.75, 280.89 -1.92, 288.39 1.49" stroke="#1e1e1e" stroke-width="1" fill="none"></path></g></g><mask></mask><g stroke-linecap="round"><g transform="translate(720.4478789042153 276.54275112713106) rotate(0 116.63774071780665 -1.2994502122298606)"><path d="M-1.09 0.72 C38.17 0.48, 195.15 -1.22, 234.36 -1.78 M0.54 0.06 C39.71 -0.47, 194.43 -3.12, 233.19 -3.32" stroke="#1e1e1e" stroke-width="1" fill="none"></path></g><g transform="translate(720.4478789042153 276.54275112713106) rotate(0 116.63774071780665 -1.2994502122298606)"><path d="M206.33 6.57 C212.61 4.43, 216.83 3.23, 232.74 -4.64 M204.13 7.59 C214.45 3.38, 221.82 0.52, 233.72 -3.21" stroke="#1e1e1e" stroke-width="1" fill="none"></path></g><g transform="translate(720.4478789042153 276.54275112713106) rotate(0 116.63774071780665 -1.2994502122298606)"><path d="M206.08 -13.95 C212.37 -11.97, 216.64 -9.06, 232.74 -4.64 M203.89 -12.93 C214.19 -10.92, 221.63 -7.58, 233.72 -3.21" stroke="#1e1e1e" stroke-width="1" fill="none"></path></g></g><mask></mask><g stroke-linecap="round"><g transform="translate(521.2120095243984 157.66665649414062) rotate(0 45.46791454565766 -56.518416580185466)"><path d="M-0.67 0.85 C14.41 -18.23, 76.06 -95.01, 91.61 -113.89" stroke="#1e1e1e" stroke-width="1.5" fill="none" stroke-dasharray="1.5 7"></path></g><g transform="translate(521.2120095243984 157.66665649414062) rotate(0 45.46791454565766 -56.518416580185466)"><path d="M83.23 -86.95 C83.51 -96.33, 89.76 -105.71, 92.74 -114.5" stroke="#1e1e1e" stroke-width="1.5" fill="none" stroke-dasharray="1.5 5"></path></g><g transform="translate(521.2120095243984 157.66665649414062) rotate(0 45.46791454565766 -56.518416580185466)"><path d="M67.3 -99.87 C73.88 -104.1, 86.37 -108.42, 92.74 -114.5" stroke="#1e1e1e" stroke-width="1.5" fill="none" stroke-dasharray="1.5 5"></path></g></g><mask></mask><g transform="translate(43.447878904214974 183.66665649414062) rotate(0 115.61195373535156 35)"><text x="0" y="0" font-family="Virgil, Segoe UI Emoji" font-size="28px" fill="#e03131" text-anchor="start" style="white-space: pre;" direction="ltr" dominant-baseline="text-before-edge">Energie absorbée</text><text x="0" y="35" font-family="Virgil, Segoe UI Emoji" font-size="28px" fill="#e03131" text-anchor="start" style="white-space: pre;" direction="ltr" dominant-baseline="text-before-edge"></text></g><g transform="translate(79.44787890421497 283.6666564941406) rotate(0 87.5699234008789 25)"><text x="0" y="0" font-family="Virgil, Segoe UI Emoji" font-size="20px" fill="#1e1e1e" text-anchor="start" style="white-space: pre;" direction="ltr" dominant-baseline="text-before-edge">Energie éléctrique</text><text x="0" y="25" font-family="Virgil, Segoe UI Emoji" font-size="20px" fill="#1e1e1e" text-anchor="start" style="white-space: pre;" direction="ltr" dominant-baseline="text-before-edge"></text></g><g transform="translate(728.8359251688635 192.66665649414062) rotate(0 115.1219482421875 35)"><text x="0" y="0" font-family="Virgil, Segoe UI Emoji" font-size="28px" fill="#e03131" text-anchor="start" style="white-space: pre;" direction="ltr" dominant-baseline="text-before-edge">Energie sortante</text><text x="0" y="35" font-family="Virgil, Segoe UI Emoji" font-size="28px" fill="#e03131" text-anchor="start" style="white-space: pre;" direction="ltr" dominant-baseline="text-before-edge"></text></g><g transform="translate(739.8779555033361 296.6666564941406) rotate(0 91.84992980957031 25)"><text x="0" y="0" font-family="Virgil, Segoe UI Emoji" font-size="20px" fill="#1e1e1e" text-anchor="start" style="white-space: pre;" direction="ltr" dominant-baseline="text-before-edge">Energie rayonnante</text><text x="0" y="25" font-family="Virgil, Segoe UI Emoji" font-size="20px" fill="#1e1e1e" text-anchor="start" style="white-space: pre;" direction="ltr" dominant-baseline="text-before-edge"></text></g><g transform="translate(369.447878904215 78) rotate(0 90.88795471191406 17.5)"><text x="0" y="0" font-family="Virgil, Segoe UI Emoji" font-size="28px" fill="#e03131" text-anchor="start" style="white-space: pre;" direction="ltr" dominant-baseline="text-before-edge">Energie perdu</text></g><g transform="translate(617.447878904215 10) rotate(0 84.33992004394531 12.5)"><text x="0" y="0" font-family="Virgil, Segoe UI Emoji" font-size="20px" fill="#1e1e1e" text-anchor="start" style="white-space: pre;" direction="ltr" dominant-baseline="text-before-edge">Energie thermique</text></g><g transform="translate(397.4478580505367 222.66665649414062) rotate(0 119.67717742919922 43.50000000000001)"><text x="119.67717742919922" y="0" font-family="Virgil, Segoe UI Emoji" font-size="69.60000000000001px" fill="#1e1e1e" text-anchor="middle" style="white-space: pre;" direction="ltr" dominant-baseline="text-before-edge">Lampe </text></g></svg>